<?xml version="1.0" encoding="UTF-8"?>
<svg width="118px" height="162px" viewBox="0 0 118 162" version="1.1" xmlns="http://www.w3.org/2000/svg" xmlns:xlink="http://www.w3.org/1999/xlink">
    <!-- Generator: Sketch 53.2 (72643) - https://sketchapp.com -->
    <title>分组 15</title>
    <desc>Created with Sketch.</desc>
    <g id="Page-1" stroke="none" stroke-width="1" fill="none" fill-rule="evenodd">
        <g id="油枪信息" transform="translate(-364.000000, -139.000000)">
            <g id="分组-15" transform="translate(364.000000, 139.000000)">
                <g id="分组-13">
                    <path d="M107.874721,145.135135 L107.874721,70.8851351 L107.854471,54 L107.854471,13.5 C107.854471,6.04054054 101.819804,0 94.3675991,0 L23.5918998,0 C16.1396945,0 10.1050283,6.04054054 10.1050283,13.5 L10.1050283,145.135135 L8.42423202,145.135135 C3.76660374,145.135135 0,148.905405 0,153.567568 C0,158.22973 3.76660374,162 8.42423202,162 L109.575768,162 C114.233396,162 118,158.22973 118,153.567568 C118,148.905405 114.233396,145.135135 109.575768,145.135135 L107.874721,145.135135 Z M33.4056276,17 L82.5943724,17 C86.7018653,17 90,20.2639167 90,24.3287946 L90,59.6712054 C90,63.7360833 86.7018653,67 82.5943724,67 L33.4056276,67 C29.2981347,67 26,63.7360833 26,59.6712054 L26,24.3287946 C26,20.2639167 29.2981347,17 33.4056276,17 L33.4056276,17 Z" id="形状" fill="#1EACFC" fill-rule="nonzero"></path>
                    <text id="加油机" font-family="PingFangSC-Regular, PingFang SC" font-size="18" font-weight="normal" fill="#FFFFFF">
                        <tspan x="32" y="116">加油机</tspan>
                    </text>
                </g>
            </g>
        </g>
    </g>
</svg>