<?xml version="1.0" encoding="UTF-8"?>
<svg width="101px" height="101px" viewBox="0 0 101 101" version="1.1" xmlns="http://www.w3.org/2000/svg" xmlns:xlink="http://www.w3.org/1999/xlink">
    <!-- Generator: Sketch 53.2 (72643) - https://sketchapp.com -->
    <title>分组 9</title>
    <desc>Created with Sketch.</desc>
    <g id="Page-1" stroke="none" stroke-width="1" fill="none" fill-rule="evenodd">
        <g id="油枪信息" transform="translate(-845.000000, -133.000000)">
            <g id="分组-18" transform="translate(845.000000, 133.000000)">
                <g id="分组-9">
                    <circle id="椭圆形-copy-3" fill="#F7F7F7" cx="50.5" cy="50.5" r="50.5"></circle>
                    <path d="M48.6955413,32.5345674 C48.8814197,32.328329 49.1899433,32.2731187 49.4384894,32.4185187 C49.6807233,32.560226 49.7885793,32.8471994 49.7167582,33.1081393 L52,34.3905341 L49.4783507,39 L47.1221418,37.6766228 C46.9372339,37.8904172 46.6232591,37.9494464 46.3710451,37.8019007 C46.1251249,37.658037 46.0177036,37.3644522 46.0961801,37.100386 L45.9209536,37.0019691 C45.7359303,37.2149313 45.4225534,37.2735383 45.1707408,37.1262274 C44.925224,36.9825997 44.8177521,36.6897418 44.8954911,36.4260126 L44.7197628,36.3273139 C44.5346263,36.5394445 44.2218473,36.59763 43.9704365,36.4505542 C43.7253235,36.3071626 43.6178017,36.0150314 43.6948047,35.7516408 L43.5185693,35.6526572 C43.3333217,35.8639568 43.021141,35.9217215 42.7701322,35.7748809 C42.5254233,35.6317258 42.4178523,35.3403209 42.4941211,35.0772704 L42.3954849,35.0218709 C42.2115902,35.2424181 41.8927872,35.3048871 41.6373391,35.1554495 C41.3881679,35.0096838 41.2811816,34.7102124 41.3656841,34.4434778 L38.5683262,32.872327 C38.318675,32.7532084 38.0499037,32.6795661 37.7743494,32.6551387 L21.9740117,31.2544681 C21.3870009,31.2024306 20.9527675,30.678073 21.0041243,30.0832825 L21.270427,26.9869203 C21.3217838,26.3921298 21.839283,25.9521415 22.4262938,26.0041789 L22.427337,26.0042719 L22.4272447,26.0053284 L39.2736261,27.5156126 C39.6663728,27.5508224 40.0470544,27.6711975 40.3898549,27.8685746 L40.3877535,27.8747985 L40.414234,27.8833273 L43.9692609,29.880027 C44.1558495,29.6804549 44.4595186,29.628587 44.7047834,29.7720674 C44.9437204,29.911846 45.0519125,30.1929633 44.9858851,30.4510193 L45.0919192,30.510574 C45.2774979,30.3018521 45.587819,30.2453902 45.8375765,30.3914988 C46.0810278,30.5339183 46.1887471,30.8230677 46.1147488,31.0850516 L46.2931239,31.1852369 C46.4788046,30.9773435 46.7885267,30.9212995 47.0378808,31.0671721 C47.2809266,31.2093544 47.3886922,31.4977782 47.3154213,31.7594157 L47.4943312,31.8599014 C47.6801119,31.6528358 47.9892348,31.597209 48.2381851,31.7428454 C48.4808251,31.8847903 48.5886363,32.1724888 48.5160911,32.4337782 L48.6955413,32.5345674 Z M80.9501052,65.6360749 C81.1346447,66.3825754 79.8278374,67.5712405 77.9358152,68.3502169 C76.1537647,69.0839161 74.4628106,69.2029145 73.9167809,68.6733904 L73.8087597,68.7200389 L66.3415174,52.4563049 C66.1403334,52.0181239 65.8499746,51.6238714 65.4878578,51.2971962 C64.0027933,49.9574796 61.6792004,50.0391221 60.2979678,51.4795498 L55.9516284,56.0121591 C55.3898801,56.5169771 54.5130734,56.5238216 53.9425497,56.0102243 C53.804684,55.8861147 53.6925061,55.737624 53.6120367,55.5727215 L51.0542054,50.059697 L50.9085921,49.7390057 C50.8112882,49.5247085 50.7745451,49.289152 50.8021361,49.0565266 L51.4596606,43.5128097 L49.7710435,42.604928 C49.0483749,42.2163866 48.787272,41.3331817 49.1878537,40.6322345 L52.5506887,34.7478681 C52.9512704,34.0469209 53.8618447,33.793666 54.5845132,34.1822073 L57.6773483,35.8450641 C57.713501,35.8645016 57.7484985,35.885177 57.7823159,35.9070056 L62.2682799,35.5821068 C63.0686024,35.5241429 63.8571404,35.7954453 64.4409119,36.3296171 L69.7283324,41.1677956 L69.7701619,41.1500204 L81,65.614528 L80.9501052,65.6360749 Z M57,58.5414287 L58.3040403,57 L62.0419187,65.7499416 L62.8423696,67.0902758 C63.4250541,68.0659648 64.6529874,68.3624408 65.5850353,67.7524734 C65.7294911,67.657936 65.861754,67.5443743 65.9785802,67.4145733 C67.2056042,66.0512751 68.5010616,64.7899835 69.8649524,63.6306985 L71.9493808,68.0828053 C72.069679,68.3397489 71.9682227,68.6501301 71.7227718,68.776061 C71.7173161,68.7788601 71.7118117,68.7815538 71.7062612,68.7841407 L65.2883129,71.7753895 C64.0397448,72.3573166 62.5769356,71.7695048 62.0210373,70.4624752 C62.0198263,70.4596279 62.0186202,70.4567783 62.0174191,70.4539265 L57,58.5414287 Z M59.0102176,55.7879454 C58.9692643,55.4038935 59.0514199,54.950701 59.2566843,54.4283679 C59.4619487,53.9060348 59.878117,53.4299122 60.5051889,53 L63.392266,53 C64.8324777,53 66,54.2185354 66,55.7216751 L66,65.8571072 C65.7071714,66.29577 65.389974,66.5959178 65.0484078,66.7575507 C64.7068415,66.9191836 64.3980899,67 64.1221528,67 L64.1719278,56.9755996 C64.1719278,56.5386714 64.0379308,56.2200489 63.769937,56.019732 C63.5019431,55.819415 63.1694679,55.7421528 62.7725115,55.7879454 L59.0102176,55.7879454 Z M72,40 L73.7080845,40.4221352 C74.2627017,40.559203 74.7292087,40.9986645 74.9651291,41.6063035 L75.7514738,43.6316203 C76.1157893,44.5699547 76.077782,45.6571571 75.6492084,46.5569366 L74.9618635,48 L72,40 Z" id="形状-copy-19" fill="#5EC5FF"></path>
                </g>
            </g>
        </g>
    </g>
</svg>