<?xml version="1.0" standalone="no"?><!DOCTYPE svg PUBLIC "-//W3C//DTD SVG 1.1//EN" "http://www.w3.org/Graphics/SVG/1.1/DTD/svg11.dtd"><svg t="1559268916794" class="icon" style="" viewBox="0 0 1024 1024" version="1.1" xmlns="http://www.w3.org/2000/svg" p-id="1989" xmlns:xlink="http://www.w3.org/1999/xlink" width="200" height="200"><defs><style type="text/css"></style></defs><path d="M502.442667 324.7104c2.491733-2.696533 6.5536-3.413333 9.8304-1.501867a8.021333 8.021333 0 0 1 3.6864 9.045334l30.173866 16.827733L512.8192 409.6l-31.1296-17.373867a7.8848 7.8848 0 0 1-9.9328 1.6384 8.021333 8.021333 0 0 1-3.618133-9.216l-2.321067-1.262933a7.8848 7.8848 0 0 1-9.898667 1.604267 8.021333 8.021333 0 0 1-3.652266-9.181867l-2.321067-1.297067a7.8848 7.8848 0 0 1-9.898667 1.604267 8.021333 8.021333 0 0 1-3.652266-9.147733l-2.321067-1.297067a7.8848 7.8848 0 0 1-9.898667 1.604267 8.021333 8.021333 0 0 1-3.652266-9.181867l-1.297067-0.7168a7.8848 7.8848 0 0 1-10.001067 1.7408 8.021333 8.021333 0 0 1-3.618133-9.352533l-36.932267-20.616534a30.788267 30.788267 0 0 0-10.513066-2.833066l-208.759467-18.432a14.165333 14.165333 0 0 1-12.8-15.36l3.515733-40.618667a14.1312 14.1312 0 0 1 15.2576-12.9024l222.6176 19.797333c5.188267 0.477867 10.24 2.048 14.7456 4.676267l-0.034133 0.068267 0.341333 0.1024 46.967467 26.2144a7.8848 7.8848 0 0 1 9.728-1.399467 8.021333 8.021333 0 0 1 3.720533 8.874667l1.365334 0.8192a7.8848 7.8848 0 0 1 9.898666-1.570134 8.021333 8.021333 0 0 1 3.652267 9.1136l2.3552 1.297067a7.8848 7.8848 0 0 1 9.8304-1.536 8.021333 8.021333 0 0 1 3.6864 9.079467l2.3552 1.3312a7.8848 7.8848 0 0 1 9.8304-1.536 8.021333 8.021333 0 0 1 3.652267 9.079466l2.389333 1.297067z m418.5088 417.723733c2.389333 9.454933-14.336 24.507733-38.570667 34.4064-22.801067 9.284267-44.4416 10.786133-51.438933 4.096l-1.365334 0.580267-95.573333-206.165333a45.226667 45.226667 0 0 0-10.9568-14.711467 48.366933 48.366933 0 0 0-66.423467 2.286933l-55.637333 57.480534a19.490133 19.490133 0 0 1-25.736533 0 18.2272 18.2272 0 0 1-4.1984-5.563734l-32.768-69.905066-1.8432-4.096a16.145067 16.145067 0 0 1-1.365334-8.635734l8.3968-70.280533-21.6064-11.502933a18.0224 18.0224 0 0 1-7.4752-25.019734l43.076267-74.581333a19.5584 19.5584 0 0 1 26.0096-7.168l39.594667 21.060267a19.5584 19.5584 0 0 1 1.365333 0.785066l57.412267-4.096c10.24-0.750933 20.309333 2.696533 27.784533 9.454934l67.6864 61.3376 0.546133-0.2048L921.6 742.161067l-0.648533 0.273066zM84.206933 537.088L170.666667 375.466667l86.459733 161.621333c10.103467 14.677333 15.940267 32.085333 15.940267 50.824533C273.066667 640.238933 227.2256 682.666667 170.666667 682.666667s-102.4-42.427733-102.4-94.754134c0-18.705067 5.8368-36.1472 15.940266-50.858666z m48.059734 61.098667c11.776 0 21.333333-8.6016 21.333333-19.217067 0-10.581333-9.557333-19.182933-21.333333-19.182933s-21.333333 8.6016-21.333334 19.217066c0 10.581333 9.557333 19.182933 21.333334 19.182934zM614.4 635.460267l17.8176-21.060267 51.029333 119.466667 10.922667 18.295466a26.487467 26.487467 0 0 0 42.8032 4.437334c16.759467-18.602667 34.474667-35.84 53.077333-51.677867l28.4672 60.791467a7.236267 7.236267 0 0 1-3.310933 9.557333l-87.6544 40.8576c-17.066667 7.953067-37.000533-0.068267-44.612267-17.92a36.522667 36.522667 0 0 1-0.034133-0.1024L614.4 635.460267z m34.269867-21.1968c-0.580267-4.676267 0.6144-10.24 3.618133-16.5888s9.079467-12.151467 18.261333-17.408h42.222934c21.0944 0 38.161067 14.848 38.161066 33.1776v123.562666a34.304 34.304 0 0 1-13.9264 10.9568 37.376 37.376 0 0 1-13.550933 2.9696l0.750933-122.197333c0-5.3248-1.979733-9.216-5.905066-11.6736a22.801067 22.801067 0 0 0-14.574934-2.798933h-55.057066zM819.2 409.6l14.574933 5.393067c4.744533 1.774933 8.704 7.3728 10.717867 15.1552l6.724267 25.941333c3.072 12.014933 2.7648 25.941333-0.887467 37.444267L844.458667 512 819.2 409.6z" fill="#FFFFFF" p-id="1990"></path></svg>