<?xml version="1.0" standalone="no"?><!DOCTYPE svg PUBLIC "-//W3C//DTD SVG 1.1//EN" "http://www.w3.org/Graphics/SVG/1.1/DTD/svg11.dtd"><svg t="1559270241735" class="icon" style="" viewBox="0 0 1024 1024" version="1.1" xmlns="http://www.w3.org/2000/svg" p-id="2110" xmlns:xlink="http://www.w3.org/1999/xlink" width="200" height="200"><defs><style type="text/css"></style></defs><path d="M375.466667 341.333333h238.933333a238.933333 238.933333 0 0 1 0 477.866667H375.466667A238.933333 238.933333 0 0 1 375.466667 341.333333z m374.818133 242.961067c0.443733-4.642133 0.648533-9.3184 0.648533-14.062933 0-77.6192-57.309867-140.561067-128-140.561067h-256C296.2432 429.6704 238.933333 492.612267 238.933333 570.231467c0 4.744533 0.2048 9.4208 0.648534 14.062933H750.250667z" fill="#FFFFFF" p-id="2111"></path><path d="M307.2 204.8m34.133333 0l34.133334 0q34.133333 0 34.133333 34.133333l0 102.4q0 34.133333-34.133333 34.133334l-34.133334 0q-34.133333 0-34.133333-34.133334l0-102.4q0-34.133333 34.133333-34.133333Z" fill="#FFFFFF" p-id="2112"></path><path d="M580.266667 204.8m34.133333 0l34.133333 0q34.133333 0 34.133334 34.133333l0 102.4q0 34.133333-34.133334 34.133334l-34.133333 0q-34.133333 0-34.133333-34.133334l0-102.4q0-34.133333 34.133333-34.133333Z" fill="#FFFFFF" p-id="2113"></path></svg>