<?xml version="1.0" standalone="no"?><!DOCTYPE svg PUBLIC "-//W3C//DTD SVG 1.1//EN" "http://www.w3.org/Graphics/SVG/1.1/DTD/svg11.dtd"><svg t="1559270274741" class="icon" style="" viewBox="0 0 1024 1024" version="1.1" xmlns="http://www.w3.org/2000/svg" p-id="2476" xmlns:xlink="http://www.w3.org/1999/xlink" width="200" height="200"><defs><style type="text/css"></style></defs><path d="M512 428.509867v-242.688a49.3568 49.3568 0 0 1 57.514667-48.605867 345.6 345.6 0 0 1 283.136 283.136A49.3568 49.3568 0 0 1 804.010667 477.866667h-242.653867A49.3568 49.3568 0 0 1 512 428.509867z" fill="#FFFFFF" p-id="2477"></path><path d="M473.6 540.706133h232.789333a50.039467 50.039467 0 0 1 50.005334 58.5728A312.7296 312.7296 0 0 1 137.216 560.605867a312.763733 312.763733 0 0 1 252.859733-327.133867 50.039467 50.039467 0 0 1 58.538667 50.039467v232.174933c0 13.824 11.195733 25.019733 25.019733 25.019733z" fill="#FFFFFF" p-id="2478"></path></svg>