<?xml version="1.0" standalone="no"?><!DOCTYPE svg PUBLIC "-//W3C//DTD SVG 1.1//EN" "http://www.w3.org/Graphics/SVG/1.1/DTD/svg11.dtd"><svg t="1562749576284" class="icon" viewBox="0 0 1024 1024" version="1.1" xmlns="http://www.w3.org/2000/svg" p-id="1154" xmlns:xlink="http://www.w3.org/1999/xlink" width="200" height="200"><defs><style type="text/css"></style></defs><path d="M425.642667 218.248533l-165.512534 283.648-73.386666-42.666666a34.133333 34.133333 0 0 1-12.4928-46.4896l129.4336-225.655467a34.133333 34.133333 0 0 1 46.762666-12.526933l75.195734 43.690666z m54.8864 31.914667l391.850666 227.771733a34.133333 34.133333 0 0 1 4.437334 55.978667l-215.483734 175.616a34.133333 34.133333 0 0 1-38.7072 3.072l-307.6096-178.7904 165.546667-283.648z" fill="#FFFFFF" p-id="1155"></path><path d="M104.2432 581.563733m34.133333 0l0 0q34.133333 0 34.133334 34.133334l0 204.8q0 34.133333-34.133334 34.133333l0 0q-34.133333 0-34.133333-34.133333l0-204.8q0-34.133333 34.133333-34.133334Z" fill="#FFFFFF" p-id="1156"></path><path d="M138.376533 683.963733m34.133334 0l102.4 0q34.133333 0 34.133333 34.133334l0 0q0 34.133333-34.133333 34.133333l-102.4 0q-34.133333 0-34.133334-34.133333l0 0q0-34.133333 34.133334-34.133334Z" fill="#FFFFFF" p-id="1157"></path><path d="M252.245333 691.643733l72.430934-72.430933a34.133333 34.133333 0 1 1 48.264533 48.264533l-72.3968 72.430934a34.133333 34.133333 0 0 1-48.264533-48.264534z" fill="#FFFFFF" p-id="1158"></path></svg>