<?xml version="1.0" standalone="no"?><!DOCTYPE svg PUBLIC "-//W3C//DTD SVG 1.1//EN" "http://www.w3.org/Graphics/SVG/1.1/DTD/svg11.dtd"><svg t="1559270268242" class="icon" style="" viewBox="0 0 1024 1024" version="1.1" xmlns="http://www.w3.org/2000/svg" p-id="2355" xmlns:xlink="http://www.w3.org/1999/xlink" width="200" height="200"><defs><style type="text/css"></style></defs><path d="M729.429333 409.429333c87.210667 0 157.934933 76.356267 158.037334 170.461867 0 94.139733-70.7584 170.496-157.934934 170.496-12.356267 0-22.698667 0.546133-34.167466 0.546133l-392.704-0.546133c1.604267-0.068267 1.774933-0.170667-1.1264-0.170667v0.170667h1.1264a258.1504 258.1504 0 0 1-10.1376 0.443733C205.346133 750.830933 136.533333 674.133333 136.533333 579.925333c0-94.1056 70.7584-170.461867 157.934934-170.461866 5.290667 0 10.581333 0.341333 15.803733 0.887466C322.730667 313.480533 399.5648 238.933333 492.6464 238.933333c95.914667 0 174.7968 79.325867 183.364267 180.565334a147.6608 147.6608 0 0 1 53.4528-10.069334zM252.2112 512A118.442667 118.442667 0 0 0 238.933333 566.5792c0 63.965867 48.9472 116.053333 110.967467 116.053333 1.092267 0 5.4272-0.2048 7.236267-0.341333h-0.8192v-0.1024c2.048 0 1.9456 0.034133 0.8192 0.1024l279.381333 0.375467c3.720533 0 7.304533-0.068267 10.922667-0.136534l1.092266-1.4336C417.109333 681.028267 292.727467 656.2816 252.177067 512z" fill="#FFFFFF" p-id="2356"></path></svg>